<svg width="34.000000" height="34.000000" viewBox="0 0 34 34" fill="none" xmlns="http://www.w3.org/2000/svg" xmlns:xlink="http://www.w3.org/1999/xlink">
	<desc>
			Created with Pixso.
	</desc>
	<defs/>
	<path id="path" d="M19.41 6.64C19.2 6.03 18.93 5.45 18.6 4.9C19.4 4.06 20.39 3.41 21.5 3.01C22.95 2.49 24.53 2.44 26.01 2.86C27.5 3.28 28.81 4.15 29.78 5.35C30.74 6.55 31.31 8.03 31.4 9.57C31.49 11.1 31.1 12.63 30.28 13.94C29.46 15.24 28.25 16.26 26.83 16.85C25.4 17.44 23.83 17.57 22.33 17.22C20.9 16.89 19.6 16.15 18.6 15.09C19.04 14.35 19.38 13.56 19.62 12.72C20.18 10.72 20.11 8.6 19.41 6.64ZM15.39 18.9C14.43 17.89 13.21 17.16 11.85 16.82C10.36 16.43 8.79 16.52 7.35 17.07C5.91 17.62 4.67 18.6 3.82 19.89C2.97 21.17 2.53 22.69 2.58 24.23C2.63 25.77 3.16 27.25 4.09 28.48C5.02 29.71 6.31 30.62 7.79 31.08C9.26 31.53 10.84 31.52 12.3 31.04C13.48 30.66 14.54 29.98 15.39 29.09C15.06 28.53 14.78 27.94 14.56 27.32C13.87 25.36 13.81 23.23 14.38 21.24C14.62 20.41 14.96 19.63 15.39 18.9ZM17 31.14C15.9 32.21 14.57 33.02 13.1 33.5C11.13 34.15 9 34.16 7.02 33.54C5.03 32.92 3.29 31.7 2.03 30.05C0.78 28.39 0.07 26.39 0 24.31C-0.07 22.23 0.52 20.18 1.67 18.46C2.02 17.93 2.42 17.44 2.85 17C1.73 15.85 0.89 14.44 0.42 12.89C-0.18 10.9 -0.14 8.77 0.52 6.8C1.18 4.83 2.44 3.12 4.13 1.9C5.81 0.68 7.83 0.01 9.91 0C11.99 -0.02 14.02 0.61 15.72 1.8C16.18 2.12 16.6 2.47 17 2.85C18.02 1.84 19.26 1.07 20.63 0.58C22.59 -0.12 24.72 -0.19 26.72 0.37C28.72 0.94 30.49 2.11 31.79 3.73C33.09 5.35 33.86 7.34 33.98 9.41C34.1 11.49 33.57 13.55 32.47 15.31C32.08 15.92 31.64 16.49 31.14 17C32.27 18.15 33.11 19.57 33.58 21.14C34.17 23.13 34.13 25.25 33.46 27.22C32.79 29.19 31.52 30.9 29.84 32.11C28.15 33.33 26.13 33.98 24.05 34C21.97 34.01 19.94 33.37 18.24 32.17C17.8 31.86 17.38 31.51 17 31.14ZM29.09 18.6C28.68 18.84 28.25 19.06 27.81 19.24C25.89 20.03 23.77 20.21 21.75 19.74C20.74 19.51 19.78 19.12 18.9 18.6C17.94 19.51 17.23 20.67 16.87 21.95C16.44 23.43 16.49 25.01 17 26.46C17.51 27.91 18.47 29.17 19.73 30.06C20.99 30.95 22.49 31.42 24.03 31.41C25.58 31.4 27.08 30.91 28.33 30.01C29.58 29.11 30.52 27.85 31.02 26.39C31.51 24.93 31.54 23.35 31.1 21.87C30.73 20.62 30.03 19.49 29.09 18.6ZM15.09 15.39C16.06 14.47 16.77 13.31 17.13 12.02C17.55 10.53 17.5 8.96 16.98 7.5C16.46 6.05 15.51 4.8 14.24 3.91C12.98 3.03 11.47 2.57 9.93 2.58C8.39 2.59 6.89 3.08 5.64 3.99C4.39 4.89 3.46 6.16 2.97 7.63C2.47 9.08 2.45 10.66 2.89 12.14C3.27 13.38 3.96 14.5 4.9 15.39C5.39 15.1 5.89 14.86 6.42 14.66C8.37 13.91 10.49 13.79 12.5 14.31C13.41 14.55 14.28 14.91 15.09 15.39Z" fill="#000743" fill-opacity="1.000000" fill-rule="evenodd"/>
</svg>
