<svg width="40" height="40" viewBox="0 0 40 40" fill="none" xmlns="http://www.w3.org/2000/svg">
<g clip-path="url(#clip0_1_12)">
<rect width="40" height="40" fill="white"/>
<path fill-rule="evenodd" clip-rule="evenodd" d="M25.4198 9.64334C25.2038 9.03719 24.931 8.45655 24.6067 7.90839C25.4069 7.06076 26.3995 6.40978 27.507 6.01453C28.9588 5.49641 30.5359 5.44349 32.0192 5.86315C33.5025 6.2828 34.8181 7.15417 35.7833 8.3561C36.7484 9.55804 37.3151 11.0308 37.4045 12.5697C37.4939 14.1086 37.1017 15.6371 36.2822 16.9428C35.4628 18.2484 34.257 19.2663 32.8323 19.8549C31.4076 20.4436 29.835 20.5737 28.3329 20.2272C26.9058 19.898 25.6098 19.1541 24.6067 18.0916C25.0427 17.3546 25.3847 16.5605 25.621 15.727C26.1877 13.7275 26.1174 11.6011 25.4198 9.64334ZM21.3933 21.9084C20.4373 20.8957 19.2131 20.1704 17.8594 19.8198C16.3671 19.4334 14.7915 19.5215 13.3517 20.0719C11.9118 20.6223 10.6792 21.6077 9.82522 22.891C8.97124 24.1743 8.53832 25.6918 8.58665 27.2325C8.63497 28.7732 9.16214 30.2606 10.0949 31.4879C11.0276 32.7152 12.3195 33.6213 13.791 34.0804C15.2626 34.5395 16.8406 34.5287 18.3057 34.0495C19.4866 33.6633 20.5468 32.9882 21.3933 32.0916C21.0635 31.5341 20.7869 30.943 20.5693 30.3258C19.878 28.3658 19.8147 26.2391 20.388 24.2415C20.6239 23.4194 20.9628 22.636 21.3933 21.9084ZM23 34.1414C21.9069 35.2129 20.5769 36.0243 19.1087 36.5045C17.1333 37.1506 15.0058 37.1652 13.0218 36.5462C11.0378 35.9272 9.29592 34.7055 8.03837 33.0508C6.78083 31.3962 6.07007 29.3908 6.00492 27.3135C5.93976 25.2362 6.52345 23.1902 7.67483 21.46C8.02448 20.9346 8.42122 20.4462 8.85856 20C7.73287 18.8516 6.89583 17.4433 6.42703 15.8911C5.82618 13.9015 5.86014 11.7742 6.5242 9.80482C7.18826 7.83546 8.44941 6.12193 10.1323 4.90244C11.8153 3.68296 13.8363 3.01813 15.9145 3.00037C17.9928 2.98261 20.0249 3.6128 21.7284 4.80334C22.1828 5.12091 22.6078 5.47414 23 5.85856C24.0286 4.85031 25.2685 4.07086 26.6388 3.58181C28.5962 2.88325 30.7226 2.81191 32.7224 3.37771C34.7222 3.94351 36.496 5.11833 37.7973 6.73885C39.0986 8.35937 39.8626 10.3451 39.9832 12.4199C40.1037 14.4947 39.5749 16.5555 38.4701 18.3158C38.0868 18.9266 37.6407 19.4906 37.1414 20C38.2749 21.1564 39.1155 22.5759 39.5824 24.1403C40.1767 26.1318 40.1358 28.259 39.4653 30.2262C38.7948 32.1934 37.528 33.9028 35.8411 35.1167C34.1542 36.3307 32.131 36.9889 30.0527 36.9999C27.9744 37.0108 25.9444 36.374 24.2448 35.1779C23.8004 34.8651 23.3844 34.5183 23 34.1414ZM35.0916 21.6067C34.6846 21.8475 34.2594 22.0601 33.8186 22.2422C31.8978 23.0358 29.7775 23.2113 27.7524 22.7441C26.7455 22.5119 25.7871 22.1266 24.9084 21.6067C23.9442 22.517 23.2387 23.6721 22.8708 24.954C22.4456 26.4357 22.4925 28.013 23.0052 29.4667C23.5179 30.9205 24.4708 32.1784 25.7314 33.0655C26.992 33.9527 28.4976 34.425 30.0391 34.4169C31.5806 34.4088 33.0812 33.9206 34.3324 33.0202C35.5835 32.1198 36.5231 30.8519 37.0204 29.3929C37.5177 27.9338 37.5481 26.3561 37.1073 24.879C36.7334 23.6262 36.0363 22.4986 35.0916 21.6067ZM21.0916 18.3933C22.0619 17.4773 22.77 16.3135 23.1359 15.0226C23.5562 13.5396 23.5041 11.9624 22.9867 10.5104C22.4692 9.05832 21.5123 7.80356 20.2488 6.92054C18.9853 6.03751 17.478 5.5701 15.9366 5.58327C14.3952 5.59645 12.8962 6.08955 11.648 6.99404C10.3997 7.89853 9.46433 9.16946 8.9718 10.6301C8.47927 12.0908 8.45408 13.6687 8.89973 15.1443C9.27535 16.3881 9.96972 17.5071 10.9084 18.3933C11.3915 18.1075 11.9 17.8615 12.4294 17.6592C14.3707 16.9171 16.495 16.7983 18.5069 17.3193C19.42 17.5558 20.2894 17.9187 21.0916 18.3933Z" fill="#000743"/>
</g>
<defs>
<clipPath id="clip0_1_12">
<rect width="40" height="40" fill="white"/>
</clipPath>
</defs>
</svg>
